# xmcd
#
# Track frame offsets:
# 150
# 18050
# 32138
# 46953
# 53485
# 74066
# 89118
# 117072
# 145400
# 156865
#
# Disc length: 2214 seconds
#
#
# Revision: 0
# Processed by: cddbd v1.5.2PL0 Copyright (c) Steve Scherf et al.
# Submitted via: FreeRIP 2.942 
#
DISCID=8608a40a
DTITLE=Daniel Angi - Daniel Angi
DYEAR=2006
DGENRE=Ballad
TTITLE0=Arara Azul
TTITLE1=Andorinha
TTITLE2=Paraiso
TTITLE3=Globalizacao
TTITLE4=Na Pele Branca
TTITLE5=Semente Boa
TTITLE6=Estrelas prá brincar
TTITLE7=Me Abraça
TTITLE8=Internet
TTITLE9=Boliche
EXTD=
EXTT0=
EXTT1=
EXTT2=
EXTT3=
EXTT4=
EXTT5=
EXTT6=
EXTT7=
EXTT8=
EXTT9=
PLAYORDER=
